<?xml version="1.0" encoding="utf-8"?>
<!-- Generator: Adobe Illustrator 26.1.0, SVG Export Plug-In . SVG Version: 6.00 Build 0)  -->
<svg version="1.1" id="Layer_1" xmlns="http://www.w3.org/2000/svg" xmlns:xlink="http://www.w3.org/1999/xlink" x="0px" y="0px"
	 viewBox="0 0 231 274" style="enable-background:new 0 0 231 274;" xml:space="preserve">
<style type="text/css">
	.st0{clip-path:url(#SVGID_00000132074906935863999750000004196080053624095678_);}
	.st1{fill:none;stroke:url(#SVGID_00000129916119140532186310000009795649715413749150_);stroke-miterlimit:10;}
	.st2{fill:none;stroke:url(#SVGID_00000139280934542963334870000014337574747508256420_);stroke-miterlimit:10;}
	.st3{fill:none;stroke:url(#SVGID_00000170972300704292218060000002525456758547398053_);stroke-miterlimit:10;}
	.st4{fill:#21AF85;}
	.st5{fill:url(#SVGID_00000056386237948879343800000008651836484239975312_);}
	.st6{fill:url(#SVGID_00000091017064465185542120000015766368307866645649_);}
	.st7{fill:url(#SVGID_00000114783289914211084130000014366777570459427726_);}
	.st8{fill:url(#SVGID_00000098211441064742658820000003452732111381620918_);}
	.st9{fill:url(#SVGID_00000100362858091954783610000010285224241806035120_);}
	.st10{fill:url(#SVGID_00000173867814615950569020000012186266396086512830_);}
	.st11{fill:url(#SVGID_00000178924486758359600290000015214089972895470007_);}
	.st12{fill:url(#SVGID_00000033328403031162857580000018052113196180997558_);}
	.st13{fill:url(#SVGID_00000014627262049567155550000003922230591248120232_);}
	.st14{fill:url(#SVGID_00000011725518085294345780000012424519269241862537_);}
	.st15{fill:url(#SVGID_00000160150510310396390210000007196649436916490395_);}
	.st16{fill:url(#SVGID_00000159465665066874562130000018325505619562883003_);}
	.st17{fill:url(#SVGID_00000168099407721694372980000008324881664632740736_);}
	.st18{fill:url(#SVGID_00000121276279333638750150000010356274224527632014_);}
	.st19{fill:url(#SVGID_00000110456324608966519280000017783276621479372709_);}
	.st20{fill:url(#SVGID_00000093898553268469332550000018397848607144609172_);}
	.st21{fill:url(#SVGID_00000180350262300213654250000008552641699561116574_);}
	.st22{fill:url(#SVGID_00000174600116963562969800000018263467902150174633_);}
	.st23{fill:url(#SVGID_00000139266372939165246830000011236740910304407231_);}
	.st24{fill:url(#SVGID_00000005255803540262744180000016039154435245711024_);}
	.st25{fill:url(#SVGID_00000065770891251031849830000000937177394317174417_);}
	.st26{fill:url(#SVGID_00000056392908474010196690000016292870833436465816_);}
	.st27{fill:url(#SVGID_00000153666846642001855840000008385221760125756850_);}
	.st28{fill:url(#SVGID_00000156588277880344758990000006317092220465094037_);}
	.st29{fill:url(#SVGID_00000060734832341999894640000009366818144563750025_);}
	.st30{fill:url(#SVGID_00000087403712626776585390000002908508527219692468_);}
	.st31{fill:url(#SVGID_00000115491074325613561550000017942813662815594923_);}
	.st32{fill:#FFFFFF;}
	.st33{fill:url(#SVGID_00000027579703809653126400000011231805866915287431_);}
	.st34{fill:url(#SVGID_00000060030388965365549650000012742500786080184992_);}
	.st35{fill:#00ADD7;}
</style>
<g>
	<defs>
		<rect id="SVGID_1_" width="231" height="274"/>
	</defs>
	<clipPath id="SVGID_00000145031847105761190220000018098459272363403403_">
		<use xlink:href="#SVGID_1_"  style="overflow:visible;"/>
	</clipPath>
	<g style="clip-path:url(#SVGID_00000145031847105761190220000018098459272363403403_);">
		
			<linearGradient id="SVGID_00000004526175128360786530000000940453197223527553_" gradientUnits="userSpaceOnUse" x1="115.403" y1="211.6022" x2="115.609" y2="37.2764" gradientTransform="matrix(1 0 0 -1 0 276)">
			<stop  offset="0" style="stop-color:#FFFFFF"/>
			<stop  offset="1" style="stop-color:#21AF85;stop-opacity:0"/>
		</linearGradient>
		<path style="fill:none;stroke:url(#SVGID_00000004526175128360786530000000940453197223527553_);stroke-miterlimit:10;" d="
			M173.9,180.9c33.3-55.6,34.2-116.4,1.9-135.7S90.4,55.4,57.1,111c-33.3,55.6-34.2,116.4-1.9,135.7
			C87.4,266,140.6,236.5,173.9,180.9z"/>
		
			<linearGradient id="SVGID_00000118366247823003166110000009928571689314771391_" gradientUnits="userSpaceOnUse" x1="115.3821" y1="223.9075" x2="115.6031" y2="36.8663" gradientTransform="matrix(1 0 0 -1 0 276)">
			<stop  offset="0" style="stop-color:#FFFFFF"/>
			<stop  offset="1" style="stop-color:#21AF85;stop-opacity:0"/>
		</linearGradient>
		<path style="fill:none;stroke:url(#SVGID_00000118366247823003166110000009928571689314771391_);stroke-miterlimit:10;" d="
			M175.8,246.7c32.3-19.3,31.4-80-1.9-135.7C140.6,55.4,87.4,25.9,55.2,45.2c-32.3,19.3-31.4,80,1.9,135.7
			C90.4,236.5,143.6,266,175.8,246.7z"/>
		
			<linearGradient id="SVGID_00000061472531822495053680000015806285313838602911_" gradientUnits="userSpaceOnUse" x1="115.5019" y1="211.1916" x2="115.5019" y2="57.784" gradientTransform="matrix(1 0 0 -1 0 276)">
			<stop  offset="0" style="stop-color:#FFFFFF"/>
			<stop  offset="1" style="stop-color:#21AF85;stop-opacity:0"/>
		</linearGradient>
		<path style="fill:none;stroke:url(#SVGID_00000061472531822495053680000015806285313838602911_);stroke-miterlimit:10;" d="
			M47.1,79c-51.1,14.4-62,56.1-24.2,93.1c37.8,37,109.9,55.3,161,40.9c51.1-14.4,62-56.1,24.2-93.1C170.3,82.8,98.2,64.6,47.1,79z"
			/>
		<g>
			<path class="st4" d="M114.6,197.9c16.4,0,29.7-30.9,29.7-69c0-38.1-13.3-69-29.7-69c-16.4,0-29.7,30.9-29.7,69
				C84.9,167,98.2,197.9,114.6,197.9z"/>
		</g>
		
			<radialGradient id="SVGID_00000065034891083656637130000005597069997726922406_" cx="-745.3074" cy="578.2243" r="1" gradientTransform="matrix(8.2194 -0.4107 -0.3288 -4.4352 6424.9517 2486.179)" gradientUnits="userSpaceOnUse">
			<stop  offset="9.000000e-02" style="stop-color:#69B5B5"/>
			<stop  offset="0.35" style="stop-color:#D9E7E7"/>
			<stop  offset="0.44" style="stop-color:#D5E5E5"/>
			<stop  offset="0.55" style="stop-color:#C8DEDE"/>
			<stop  offset="0.66" style="stop-color:#B3D4D4"/>
			<stop  offset="0.89" style="stop-color:#BDD7D7"/>
			<stop  offset="1" style="stop-color:#C4D9D9"/>
		</radialGradient>
		<path style="fill:url(#SVGID_00000065034891083656637130000005597069997726922406_);" d="M105.1,225h7.7c0.4,0,0.9,0.1,1.2,0.4
			c0.3,0.3,0.6,0.7,0.6,1.1v8.4c0,1.9-2.8,2.9-4.5,1.6c-3.3-2.3-5.7-5.8-6.7-9.8C103.1,225.9,103.9,225,105.1,225z"/>
		
			<radialGradient id="SVGID_00000129914319571609061640000002603422161356064956_" cx="-922.3579" cy="596.0295" r="1" gradientTransform="matrix(-9.4047 1.6968 -1.3062 -6.5262 -7789.1016 5670.4658)" gradientUnits="userSpaceOnUse">
			<stop  offset="0.39" style="stop-color:#69B5B5"/>
			<stop  offset="0.44" style="stop-color:#70B8B8"/>
			<stop  offset="0.51" style="stop-color:#82C0C0"/>
			<stop  offset="0.58" style="stop-color:#A1CCCC"/>
			<stop  offset="0.62" style="stop-color:#B3D4D4"/>
			<stop  offset="0.75" style="stop-color:#DBF2F2"/>
			<stop  offset="0.94" style="stop-color:#D9E7E7"/>
		</radialGradient>
		<path style="fill:url(#SVGID_00000129914319571609061640000002603422161356064956_);" d="M114.3,221.2v-6.8c0-2.9-2.9-4.9-6.1-4.3
			l-4.3,0.8c-3.2,0.6-5.1,3.6-4,6.2l2.6,6.3C104.7,229,114.3,227.2,114.3,221.2z"/>
		
			<radialGradient id="SVGID_00000182516216530287782350000015403184053475761341_" cx="-898.8564" cy="620.6147" r="1" gradientTransform="matrix(-13.4338 2.4238 -1.8658 -9.3222 -10812.3232 8161.5029)" gradientUnits="userSpaceOnUse">
			<stop  offset="0.45" style="stop-color:#69B5B5"/>
			<stop  offset="0.61" style="stop-color:#B3D4D4"/>
			<stop  offset="0.72" style="stop-color:#B4C7C7"/>
			<stop  offset="0.85" style="stop-color:#C7D8D8"/>
			<stop  offset="0.94" style="stop-color:#D9E7E7"/>
		</radialGradient>
		<path style="fill:url(#SVGID_00000182516216530287782350000015403184053475761341_);" d="M113.8,206.8v-9.7c0-4.1-4.2-7-8.7-6.2
			l-6.2,1.1c-4.6,0.8-7.3,5.1-5.8,8.9l3.7,9C100.1,218,113.8,215.5,113.8,206.8z"/>
		
			<radialGradient id="SVGID_00000093173731512134760670000005269870936882282932_" cx="-819.0118" cy="591.8258" r="1" gradientTransform="matrix(15.9183 -10.3489 -5.1782 -7.6659 16211.8389 -3728.1545)" gradientUnits="userSpaceOnUse">
			<stop  offset="0" style="stop-color:#FF8742"/>
			<stop  offset="0.17" style="stop-color:#E68724"/>
			<stop  offset="0.38" style="stop-color:#C98600"/>
			<stop  offset="0.5" style="stop-color:#C48300"/>
			<stop  offset="0.64" style="stop-color:#B67900"/>
			<stop  offset="0.79" style="stop-color:#9E6800"/>
			<stop  offset="0.89" style="stop-color:#8A5B00"/>
		</radialGradient>
		<path style="fill:url(#SVGID_00000093173731512134760670000005269870936882282932_);" d="M96.3,208.6l0.6,1.4c3.3,8,17,5.5,17-3.1
			v-1C109.3,210.5,102.6,211.4,96.3,208.6z"/>
		<g>
			
				<radialGradient id="SVGID_00000094614899587528276310000005234848674232115334_" cx="-642.9992" cy="806.4614" r="1" gradientTransform="matrix(3.217 3.5025 1.5365 -2.351 930.626 4362.7329)" gradientUnits="userSpaceOnUse">
				<stop  offset="0" style="stop-color:#6661AC"/>
				<stop  offset="0.26" style="stop-color:#4A4587"/>
				<stop  offset="0.51" style="stop-color:#322E69"/>
				<stop  offset="1" style="stop-color:#383475"/>
			</radialGradient>
			<path style="fill:url(#SVGID_00000094614899587528276310000005234848674232115334_);" d="M97.9,215.3c-0.4-2,0.5-3.8,2-4
				c1.5-0.3,3,1.1,3.3,3.1c0.4,2-0.5,3.8-2,4C99.7,218.6,98.2,217.2,97.9,215.3z"/>
		</g>
		
			<radialGradient id="SVGID_00000162325529900046541800000002770582889183923101_" cx="-949.9169" cy="597.1696" r="1" gradientTransform="matrix(-8.2194 -0.4107 0.3288 -4.4352 -7880.9868 2484.1611)" gradientUnits="userSpaceOnUse">
			<stop  offset="9.000000e-02" style="stop-color:#69B5B5"/>
			<stop  offset="0.35" style="stop-color:#D9E7E7"/>
			<stop  offset="0.44" style="stop-color:#D5E5E5"/>
			<stop  offset="0.55" style="stop-color:#C8DEDE"/>
			<stop  offset="0.66" style="stop-color:#B3D4D4"/>
			<stop  offset="0.89" style="stop-color:#BDD7D7"/>
			<stop  offset="1" style="stop-color:#C4D9D9"/>
		</radialGradient>
		<path style="fill:url(#SVGID_00000162325529900046541800000002770582889183923101_);" d="M125,225h-7.7c-0.4,0-0.8,0.1-1.2,0.4
			c-0.3,0.3-0.5,0.7-0.6,1.1v8.4c0,1.9,2.8,2.9,4.5,1.6c3.3-2.3,5.7-5.8,6.7-9.8C127,225.9,126.1,225,125,225z"/>
		
			<radialGradient id="SVGID_00000092446473294228731020000005742683968897696654_" cx="-749.128" cy="641.0694" r="1" gradientTransform="matrix(9.4047 1.6968 1.3062 -6.5262 6332.5186 5666.4502)" gradientUnits="userSpaceOnUse">
			<stop  offset="0.39" style="stop-color:#69B5B5"/>
			<stop  offset="0.44" style="stop-color:#70B8B8"/>
			<stop  offset="0.51" style="stop-color:#82C0C0"/>
			<stop  offset="0.58" style="stop-color:#A1CCCC"/>
			<stop  offset="0.62" style="stop-color:#B3D4D4"/>
			<stop  offset="0.75" style="stop-color:#DBF2F2"/>
			<stop  offset="0.94" style="stop-color:#D9E7E7"/>
		</radialGradient>
		<path style="fill:url(#SVGID_00000092446473294228731020000005742683968897696654_);" d="M115.8,221.2v-6.8c0-2.9,2.9-4.9,6.1-4.3
			l4.3,0.8c3.2,0.6,5.1,3.6,4,6.2l-2.6,6.3C125.3,229,115.8,227.2,115.8,221.2z"/>
		
			<radialGradient id="SVGID_00000153678873667401159740000011650398238595617185_" cx="-777.5825" cy="652.1458" r="1" gradientTransform="matrix(13.4338 2.4238 1.8658 -9.3222 9355.752 8157.4878)" gradientUnits="userSpaceOnUse">
			<stop  offset="0.45" style="stop-color:#69B5B5"/>
			<stop  offset="0.61" style="stop-color:#B3D4D4"/>
			<stop  offset="0.72" style="stop-color:#B4C7C7"/>
			<stop  offset="0.85" style="stop-color:#C7D8D8"/>
			<stop  offset="0.94" style="stop-color:#D9E7E7"/>
		</radialGradient>
		<path style="fill:url(#SVGID_00000153678873667401159740000011650398238595617185_);" d="M116.3,206.8v-9.7c0-4.1,4.2-7,8.7-6.2
			l6.2,1.1c4.6,0.8,7.3,5.1,5.8,8.9l-3.7,9C130,218,116.3,215.5,116.3,206.8z"/>
		
			<radialGradient id="SVGID_00000114782912422657199660000017580583951345766315_" cx="-892.6949" cy="691.2978" r="1" gradientTransform="matrix(-15.9183 -10.3489 5.1782 -7.6659 -17669.7188 -3732.1956)" gradientUnits="userSpaceOnUse">
			<stop  offset="0" style="stop-color:#FF8742"/>
			<stop  offset="0.17" style="stop-color:#E68724"/>
			<stop  offset="0.38" style="stop-color:#C98600"/>
			<stop  offset="0.5" style="stop-color:#C48300"/>
			<stop  offset="0.64" style="stop-color:#B67900"/>
			<stop  offset="0.79" style="stop-color:#9E6800"/>
			<stop  offset="0.89" style="stop-color:#8A5B00"/>
		</radialGradient>
		<path style="fill:url(#SVGID_00000114782912422657199660000017580583951345766315_);" d="M133.8,208.6l-0.6,1.4
			c-3.3,8-17,5.5-17-3.1v-1C120.7,210.5,127.5,211.4,133.8,208.6z"/>
		<g>
			
				<radialGradient id="SVGID_00000163066017111160292420000007202027844858335419_" cx="-896.9529" cy="274.4458" r="1" gradientTransform="matrix(-1.6441 3.6916 -1.8757 -1.4806 -830.0487 3932.0642)" gradientUnits="userSpaceOnUse">
				<stop  offset="0" style="stop-color:#6661AC"/>
				<stop  offset="0.26" style="stop-color:#4A4587"/>
				<stop  offset="0.51" style="stop-color:#322E69"/>
				<stop  offset="1" style="stop-color:#383475"/>
			</radialGradient>
			<path style="fill:url(#SVGID_00000163066017111160292420000007202027844858335419_);" d="M132.2,215.3c0.4-2-0.5-3.8-2-4
				c-1.5-0.3-3,1.1-3.3,3.1c-0.4,2,0.5,3.8,2,4C130.3,218.6,131.8,217.2,132.2,215.3z"/>
		</g>
		
			<radialGradient id="SVGID_00000035526945623058140130000003215954137211478923_" cx="-805.0484" cy="756.3905" r="1" gradientTransform="matrix(1.4029 12.5776 10.0695 -1.1215 -6428.168 11115.2578)" gradientUnits="userSpaceOnUse">
			<stop  offset="0.58" style="stop-color:#69B5B5"/>
			<stop  offset="0.61" style="stop-color:#B3D4D4"/>
			<stop  offset="0.75" style="stop-color:#C4D9D9"/>
			<stop  offset="0.93" style="stop-color:#D7E6E6"/>
			<stop  offset="0.94" style="stop-color:#D9E7E7"/>
		</radialGradient>
		<path style="fill:url(#SVGID_00000035526945623058140130000003215954137211478923_);" d="M40.3,135.2l9.8-2.8c1-0.3,2-0.3,3-0.2
			c1,0.2,1.9,0.5,2.8,1.1c0.8,0.6,1.5,1.3,2.1,2.1c0.5,0.9,0.9,1.8,1,2.8l0.6,5.8c0.1,1,0,2-0.3,3c-0.3,1-0.8,1.8-1.5,2.6
			c-0.7,0.7-1.5,1.3-2.5,1.7c-0.9,0.4-1.9,0.5-3,0.5L42,151.1C32.9,150.6,31.5,137.8,40.3,135.2z"/>
		
			<radialGradient id="SVGID_00000177466988122665569490000017501800088795933841_" cx="-816.7294" cy="732.8825" r="1" gradientTransform="matrix(2.0039 17.9651 14.3826 -1.6019 -8816.3164 15984.8223)" gradientUnits="userSpaceOnUse">
			<stop  offset="0.58" style="stop-color:#69B5B5"/>
			<stop  offset="0.61" style="stop-color:#B3D4D4"/>
			<stop  offset="0.75" style="stop-color:#C4D9D9"/>
			<stop  offset="0.93" style="stop-color:#D7E6E6"/>
			<stop  offset="0.94" style="stop-color:#D9E7E7"/>
		</radialGradient>
		<path style="fill:url(#SVGID_00000177466988122665569490000017501800088795933841_);" d="M61.6,129.4l14.1-4.1
			c1.4-0.4,2.8-0.5,4.3-0.3c1.4,0.2,2.8,0.8,4,1.6c1.2,0.8,2.2,1.9,3,3.1c0.7,1.2,1.2,2.6,1.4,4l0.9,8.2c0.2,1.4,0,2.9-0.5,4.2
			c-0.5,1.4-1.2,2.6-2.2,3.7c-1,1-2.2,1.9-3.5,2.4c-1.3,0.5-2.8,0.8-4.2,0.7L64.1,152C51.1,151.3,49,133,61.6,129.4z"/>
		
			<radialGradient id="SVGID_00000132087209773647419140000004561025079125601436_" cx="-816.7294" cy="732.8825" r="1" gradientTransform="matrix(2.0039 17.9651 14.3826 -1.6019 -8816.3164 15984.8223)" gradientUnits="userSpaceOnUse">
			<stop  offset="0.58" style="stop-color:#21AF85"/>
			<stop  offset="0.61" style="stop-color:#B3D4D4"/>
			<stop  offset="0.75" style="stop-color:#C4D9D9"/>
			<stop  offset="0.93" style="stop-color:#D7E6E6"/>
			<stop  offset="0.94" style="stop-color:#D9E7E7"/>
		</radialGradient>
		<path style="fill:url(#SVGID_00000132087209773647419140000004561025079125601436_);" d="M61.6,129.4l14.1-4.1
			c1.4-0.4,2.8-0.5,4.3-0.3c1.4,0.2,2.8,0.8,4,1.6c1.2,0.8,2.2,1.9,3,3.1c0.7,1.2,1.2,2.6,1.4,4l0.9,8.2c0.2,1.4,0,2.9-0.5,4.2
			c-0.5,1.4-1.2,2.6-2.2,3.7c-1,1-2.2,1.9-3.5,2.4c-1.3,0.5-2.8,0.8-4.2,0.7L64.1,152C51.1,151.3,49,133,61.6,129.4z"/>
		
			<radialGradient id="SVGID_00000122696528938135209400000005699359236360356248_" cx="-819.8884" cy="590.2866" r="1" gradientTransform="matrix(-1.3931 12.529 -10.0052 -1.139 4934.3438 11088.7207)" gradientUnits="userSpaceOnUse">
			<stop  offset="0.58" style="stop-color:#69B5B5"/>
			<stop  offset="0.61" style="stop-color:#B3D4D4"/>
			<stop  offset="0.75" style="stop-color:#C4D9D9"/>
			<stop  offset="0.93" style="stop-color:#D7E6E6"/>
			<stop  offset="0.94" style="stop-color:#D9E7E7"/>
		</radialGradient>
		<path style="fill:url(#SVGID_00000122696528938135209400000005699359236360356248_);" d="M189.7,135.2l-9.8-2.8
			c-1-0.3-2-0.3-3-0.2c-1,0.2-1.9,0.5-2.8,1.1s-1.5,1.3-2.1,2.2c-0.5,0.9-0.9,1.8-1,2.8l-0.6,5.8c-0.1,1,0,2,0.3,3
			c0.3,1,0.8,1.8,1.5,2.6c0.7,0.7,1.5,1.3,2.5,1.7s1.9,0.5,3,0.5l10.2-0.6C197,150.6,198.4,137.8,189.7,135.2z"/>
		
			<radialGradient id="SVGID_00000034781623195444395950000017188682516273951112_" cx="-827.1191" cy="616.5905" r="1" gradientTransform="matrix(-1.9899 17.8956 -14.2908 -1.6269 7307.5449 15945.6777)" gradientUnits="userSpaceOnUse">
			<stop  offset="0.58" style="stop-color:#21AF85"/>
			<stop  offset="0.61" style="stop-color:#B3D4D4"/>
			<stop  offset="0.75" style="stop-color:#C4D9D9"/>
			<stop  offset="0.93" style="stop-color:#D7E6E6"/>
			<stop  offset="0.94" style="stop-color:#D9E7E7"/>
		</radialGradient>
		<path style="fill:url(#SVGID_00000034781623195444395950000017188682516273951112_);" d="M168.4,129.4l-14-4.1
			c-1.4-0.4-2.8-0.5-4.3-0.3c-1.4,0.2-2.8,0.8-4,1.6c-1.2,0.8-2.2,1.9-3,3.1c-0.7,1.2-1.2,2.6-1.4,4l-0.9,8.2
			c-0.2,1.4,0,2.9,0.5,4.2c0.5,1.4,1.2,2.6,2.2,3.7c1,1,2.2,1.9,3.5,2.4c1.3,0.5,2.8,0.8,4.2,0.7l14.6-0.9
			C178.8,151.3,180.9,133,168.4,129.4z"/>
		
			<radialGradient id="SVGID_00000132068225964081015010000002054640459452016272_" cx="-825.6061" cy="667.6854" r="1" gradientTransform="matrix(45.8849 0 0 -38.9738 37997.3438 26135.9824)" gradientUnits="userSpaceOnUse">
			<stop  offset="0.53" style="stop-color:#69B5B5"/>
			<stop  offset="0.61" style="stop-color:#B3D4D4"/>
			<stop  offset="0.75" style="stop-color:#C4D9D9"/>
			<stop  offset="0.87" style="stop-color:#D7E8E8"/>
			<stop  offset="0.94" style="stop-color:#E4F2F2"/>
			<stop  offset="1" style="stop-color:#D0E1E1"/>
		</radialGradient>
		<path style="fill:url(#SVGID_00000132068225964081015010000002054640459452016272_);" d="M85.8,177.5l-6.3-36.5
			c-0.6-3.6-0.4-7.3,0.5-10.8c1-3.5,2.7-6.8,5-9.6c2.4-2.8,5.3-5,8.6-6.6c3.3-1.5,6.9-2.3,10.6-2.3h21c3.7,0,7.3,0.8,10.6,2.3
			c3.3,1.5,6.3,3.8,8.6,6.6c2.4,2.8,4.1,6.1,5,9.6c1,3.5,1.1,7.2,0.5,10.8l-6.3,36.5C138.2,210.1,91.4,210.1,85.8,177.5z"/>
		
			<linearGradient id="SVGID_00000103243610261966562590000017196862920616577453_" gradientUnits="userSpaceOnUse" x1="211.2909" y1="119.479" x2="97.3834" y2="119.163" gradientTransform="matrix(1 0 0 -1 0 276)">
			<stop  offset="0.84" style="stop-color:#C1C0D8;stop-opacity:0.31"/>
			<stop  offset="0.85" style="stop-color:#3A3583"/>
		</linearGradient>
		<path style="fill:url(#SVGID_00000103243610261966562590000017196862920616577453_);" d="M125.3,111.6h-10.2V161
			c4.4,0.1,8.5,1.8,11.6,5c3.1,3.1,4.8,7.3,4.8,11.7c0,9.1-7.3,15.6-16.4,15.7v8.6c13-0.1,25.9-8.3,28.7-24.4l6.3-36.5
			c0.6-3.6,0.4-7.3-0.5-10.8c-1-3.5-2.7-6.8-5-9.6c-2.4-2.8-5.3-5-8.6-6.6C132.6,112.4,129,111.6,125.3,111.6z"/>
		<g>
			
				<radialGradient id="SVGID_00000108303759777696909790000007689458963626966428_" cx="-801.1452" cy="657.5457" r="0.9999" gradientTransform="matrix(19.6944 0 0 -19.6536 15893.2402 13101.1592)" gradientUnits="userSpaceOnUse">
				<stop  offset="0.76" style="stop-color:#FFFFFF"/>
				<stop  offset="0.8" style="stop-color:#558B8B;stop-opacity:0.95"/>
				<stop  offset="0.84" style="stop-color:#669797;stop-opacity:0.82"/>
				<stop  offset="0.89" style="stop-color:#82ABAB;stop-opacity:0.47"/>
				<stop  offset="0.95" style="stop-color:#A9C6C6;stop-opacity:0.3"/>
				<stop  offset="1" style="stop-color:#D0E1E1;stop-opacity:0"/>
			</radialGradient>
			<path style="fill:url(#SVGID_00000108303759777696909790000007689458963626966428_);" d="M115.2,161c3.4,0,6.7,1,9.5,2.8
				c2.8,1.9,5,4.5,6.3,7.6c1.3,3.1,1.6,6.5,1,9.8c-0.7,3.3-2.3,6.3-4.7,8.7c-2.4,2.4-5.4,4-8.7,4.7c-3.3,0.7-6.7,0.3-9.9-1
				c-3.1-1.3-5.8-3.5-7.7-6.3c-1.9-2.8-2.9-6.1-2.9-9.5c0-2.2,0.4-4.4,1.3-6.5c0.9-2.1,2.1-3.9,3.7-5.5c1.6-1.6,3.4-2.8,5.5-3.7
				C110.7,161.5,112.9,161,115.2,161z M115.2,158.3c-3.9,0-7.7,1.1-11,3.3c-3.3,2.2-5.8,5.2-7.3,8.8c-1.5,3.6-1.9,7.6-1.2,11.4
				c0.8,3.8,2.6,7.3,5.4,10.1c2.8,2.8,6.3,4.6,10.1,5.4c3.8,0.8,7.8,0.4,11.4-1.1c3.6-1.5,6.7-4,8.9-7.3c2.2-3.2,3.3-7,3.3-10.9
				c0-5.2-2.1-10.2-5.7-13.9C125.4,160.4,120.4,158.3,115.2,158.3z"/>
		</g>
		
			<radialGradient id="SVGID_00000085939972946033861430000016213524023547198619_" cx="-815.2629" cy="653.7018" r="1" gradientTransform="matrix(28.7951 -1.0953 -0.6796 -17.8399 23983.5391 10902.7656)" gradientUnits="userSpaceOnUse">
			<stop  offset="0" style="stop-color:#FF8742"/>
			<stop  offset="0.25" style="stop-color:#E68724"/>
			<stop  offset="0.58" style="stop-color:#C98600"/>
			<stop  offset="0.62" style="stop-color:#C88905"/>
			<stop  offset="0.68" style="stop-color:#C49013"/>
			<stop  offset="0.74" style="stop-color:#BE9C2C"/>
			<stop  offset="0.8" style="stop-color:#B6AE4D"/>
			<stop  offset="0.86" style="stop-color:#ABC478"/>
			<stop  offset="0.93" style="stop-color:#94EBD1"/>
			<stop  offset="1" style="stop-color:#5FDCB7"/>
		</radialGradient>
		<path style="fill:url(#SVGID_00000085939972946033861430000016213524023547198619_);" d="M64.1,152.1L64.1,152.1l10.3,0.6
			c-9-5.2-11.4-18.9-2.6-26.2l-8.5,2.5C56.6,135.5,57.8,146.2,64.1,152.1z"/>
		
			<radialGradient id="SVGID_00000013890324405931073340000008078710276657380265_" cx="-815.2276" cy="653.6997" r="1" gradientTransform="matrix(28.7604 -1.0953 -0.6788 -17.8399 24049.7188 10902.7656)" gradientUnits="userSpaceOnUse">
			<stop  offset="0" style="stop-color:#FF8742"/>
			<stop  offset="0.25" style="stop-color:#E68724"/>
			<stop  offset="0.58" style="stop-color:#C98600"/>
			<stop  offset="0.62" style="stop-color:#C88905"/>
			<stop  offset="0.68" style="stop-color:#C49013"/>
			<stop  offset="0.74" style="stop-color:#BE9C2C"/>
			<stop  offset="0.8" style="stop-color:#B6AE4D"/>
			<stop  offset="0.86" style="stop-color:#ABC478"/>
			<stop  offset="0.93" style="stop-color:#94EBD1"/>
			<stop  offset="1" style="stop-color:#5FDCB7"/>
		</radialGradient>
		<path style="fill:url(#SVGID_00000013890324405931073340000008078710276657380265_);" d="M165.1,152.1L165.1,152.1l-10.3,0.6
			c9-5.2,11.4-18.9,2.6-26.2l8.5,2.5C172.5,135.5,171.3,146.2,165.1,152.1z"/>
		<g>
			
				<radialGradient id="SVGID_00000153665368497095195120000008166260891953666703_" cx="-769.0095" cy="801.6022" r="1" gradientTransform="matrix(1.3285 7.257 6.0224 -1.1505 -3748.2251 6633.4131)" gradientUnits="userSpaceOnUse">
				<stop  offset="0" style="stop-color:#6661AC"/>
				<stop  offset="0.26" style="stop-color:#4A4587"/>
				<stop  offset="0.51" style="stop-color:#322E69"/>
				<stop  offset="1" style="stop-color:#383475"/>
			</radialGradient>
			<path style="fill:url(#SVGID_00000153665368497095195120000008166260891953666703_);" d="M52.2,129c3.7-0.7,7.1,0.9,7.6,3.6
				c0.5,2.7-2.1,5.5-5.8,6.2c-3.7,0.7-7.1-0.9-7.6-3.6C45.9,132.5,48.5,129.7,52.2,129z"/>
		</g>
		<g>
			
				<radialGradient id="SVGID_00000023971914662922847810000014230009312933548457_" cx="-811.9442" cy="530.7847" r="1" gradientTransform="matrix(-1.3285 7.257 -6.0224 -1.1505 2292.9714 6635.5273)" gradientUnits="userSpaceOnUse">
				<stop  offset="0" style="stop-color:#6661AC"/>
				<stop  offset="0.26" style="stop-color:#4A4587"/>
				<stop  offset="0.51" style="stop-color:#322E69"/>
				<stop  offset="1" style="stop-color:#383475"/>
			</radialGradient>
			<path style="fill:url(#SVGID_00000023971914662922847810000014230009312933548457_);" d="M177.7,129c-3.7-0.7-7.1,0.9-7.6,3.6
				c-0.5,2.7,2.1,5.5,5.8,6.2c3.7,0.7,7.1-0.9,7.6-3.6C184,132.5,181.4,129.7,177.7,129z"/>
		</g>
		
			<radialGradient id="SVGID_00000093138342847003826970000003344537396981103803_" cx="-829.1971" cy="668.9902" r="1" gradientTransform="matrix(57.0159 0 0 -44.6184 47399.5352 29929.2812)" gradientUnits="userSpaceOnUse">
			<stop  offset="9.000000e-02" style="stop-color:#FFFFFF"/>
			<stop  offset="0.26" style="stop-color:#FCFEFE"/>
			<stop  offset="0.37" style="stop-color:#F4F9F9"/>
			<stop  offset="0.46" style="stop-color:#E6F1F1"/>
			<stop  offset="0.54" style="stop-color:#D2E5E5"/>
			<stop  offset="0.61" style="stop-color:#B8D7D7"/>
			<stop  offset="0.62" style="stop-color:#B3D4D4"/>
			<stop  offset="0.72" style="stop-color:#C4D9D9"/>
			<stop  offset="1" style="stop-color:#D3E0E0"/>
		</radialGradient>
		<path style="fill:url(#SVGID_00000093138342847003826970000003344537396981103803_);" d="M115.1,135c24.3,0,43.9-18.3,43.9-40.9
			c0-22.6-19.7-40.9-43.9-40.9c-24.3,0-43.9,18.3-43.9,40.9C71.2,116.7,90.8,135,115.1,135z"/>
		
			<radialGradient id="SVGID_00000048482026143617511150000010463579511658872224_" cx="-808.3303" cy="651.3482" r="1" gradientTransform="matrix(23.6615 0 0 -15.0834 19241.5762 9890.8672)" gradientUnits="userSpaceOnUse">
			<stop  offset="0.76" style="stop-color:#FFFFFF;stop-opacity:0"/>
			<stop  offset="0.87" style="stop-color:#9694BD;stop-opacity:0.53"/>
			<stop  offset="0.95" style="stop-color:#544F93;stop-opacity:0.87"/>
			<stop  offset="1" style="stop-color:#3A3583"/>
		</radialGradient>
		<path style="fill:url(#SVGID_00000048482026143617511150000010463579511658872224_);" d="M115.5,79.6c10.7,0,19.4-5.9,19.4-13.2
			c0-7.3-8.7-13.2-19.4-13.2c-10.7,0-19.4,5.9-19.4,13.2C96.1,73.7,104.8,79.6,115.5,79.6z"/>
		
			<radialGradient id="SVGID_00000075152372036241184010000005435864990668304310_" cx="-832.2604" cy="693.4901" r="1" gradientTransform="matrix(2.096791e-15 34.2432 54.4863 -3.336324e-15 -37670.7695 28598.1758)" gradientUnits="userSpaceOnUse">
			<stop  offset="0.66" style="stop-color:#FFFFFF;stop-opacity:0"/>
			<stop  offset="0.67" style="stop-color:#FFFFFF;stop-opacity:0.19"/>
			<stop  offset="0.68" style="stop-color:#FFFFFF;stop-opacity:0.37"/>
			<stop  offset="0.69" style="stop-color:#FFFFFF;stop-opacity:0.51"/>
			<stop  offset="0.7" style="stop-color:#FFFFFF;stop-opacity:0.62"/>
			<stop  offset="0.71" style="stop-color:#FFFFFF;stop-opacity:0.68"/>
			<stop  offset="0.72" style="stop-color:#FFFFFF;stop-opacity:0.7"/>
			<stop  offset="0.74" style="stop-color:#FFFFFF;stop-opacity:0.62"/>
			<stop  offset="0.76" style="stop-color:#FFFFFF;stop-opacity:0.43"/>
			<stop  offset="0.81" style="stop-color:#FFFFFF;stop-opacity:0.11"/>
			<stop  offset="0.82" style="stop-color:#FFFFFF;stop-opacity:0"/>
		</radialGradient>
		<path style="fill:url(#SVGID_00000075152372036241184010000005435864990668304310_);" d="M159,101c-8.5,36.1-79.4,36.1-87.9,0H159
			z"/>
		
			<radialGradient id="SVGID_00000092419591646140725130000003914625161457723578_" cx="-831.9042" cy="656.0837" r="1" gradientTransform="matrix(69.926 0.3171 8.250220e-02 -18.1675 58226.625 12293.5303)" gradientUnits="userSpaceOnUse">
			<stop  offset="0.15" style="stop-color:#6661AC"/>
			<stop  offset="0.36" style="stop-color:#5F5BA4"/>
			<stop  offset="0.67" style="stop-color:#4E498F"/>
			<stop  offset="0.97" style="stop-color:#383475"/>
		</radialGradient>
		<path style="fill:url(#SVGID_00000092419591646140725130000003914625161457723578_);" d="M158.8,89.7
			c-9.7,10.7-25.6,17.7-43.7,17.7c-18,0-34-7-43.7-17.7c-0.1,1.1-0.2,2.3-0.2,3.5c0,2.1,0.2,4.7,0.3,5.9
			c9.7,10.7,25.6,17.6,43.6,17.6c18,0,33.9-7,43.6-17.6c0.2-1.2,0.3-3.9,0.3-5.9C159,92.1,158.9,90.9,158.8,89.7z"/>
		
			<radialGradient id="SVGID_00000142169972105705045260000008736004351906241960_" cx="-825.5262" cy="661.6934" r="1" gradientTransform="matrix(45.6863 0 0 -24.6526 37830.5742 16403.7363)" gradientUnits="userSpaceOnUse">
			<stop  offset="0.17" style="stop-color:#0B0B52"/>
			<stop  offset="0.48" style="stop-color:#0D0D54;stop-opacity:0.97"/>
			<stop  offset="0.64" style="stop-color:#16155D;stop-opacity:0.88"/>
			<stop  offset="0.76" style="stop-color:#25236B;stop-opacity:0.72"/>
			<stop  offset="0.86" style="stop-color:#393780;stop-opacity:0.49"/>
			<stop  offset="0.95" style="stop-color:#54509A;stop-opacity:0.2"/>
			<stop  offset="1" style="stop-color:#6661AC;stop-opacity:0"/>
		</radialGradient>
		<path style="fill:url(#SVGID_00000142169972105705045260000008736004351906241960_);" d="M158.8,89.7
			c-9.7,10.7-25.6,17.7-43.7,17.7c-18,0-34-7-43.7-17.7c-0.1,1.1-0.2,2.3-0.2,3.5c0,2.1,0.2,4.7,0.3,5.9
			c9.7,10.7,25.6,17.6,43.6,17.6c18,0,33.9-7,43.6-17.6c0.2-1.2,0.3-3.9,0.3-5.9C159,92.1,158.9,90.9,158.8,89.7z"/>
		<g>
			<path class="st32" d="M91.4,109c0-0.5,0.2-1,0.4-1.5c0.3-0.4,0.7-0.8,1.2-1c0.5-0.2,1-0.3,1.5-0.2c0.5,0.1,1,0.4,1.4,0.7
				c0.4,0.4,0.6,0.8,0.7,1.3c0.1,0.5,0,1-0.2,1.5c-0.2,0.5-0.5,0.9-1,1.2c-0.4,0.3-0.9,0.4-1.5,0.4c-0.7,0-1.4-0.3-1.9-0.8
				C91.7,110.3,91.4,109.7,91.4,109z"/>
		</g>
		<g>
			<path class="st32" d="M134.3,109c0-0.5,0.2-1,0.4-1.5c0.3-0.4,0.7-0.8,1.2-1c0.5-0.2,1-0.3,1.5-0.1c0.5,0.1,1,0.4,1.3,0.7
				c0.4,0.4,0.6,0.8,0.7,1.4s0,1-0.2,1.5c-0.2,0.5-0.5,0.9-1,1.2c-0.4,0.3-0.9,0.4-1.5,0.4c-0.3,0-0.7-0.1-1-0.2
				c-0.3-0.1-0.6-0.3-0.9-0.6c-0.2-0.2-0.4-0.5-0.6-0.9C134.4,109.7,134.3,109.3,134.3,109z"/>
		</g>
		
			<radialGradient id="SVGID_00000114782014123558607460000010037113987970998684_" cx="-832.655" cy="690.5271" r="1" gradientTransform="matrix(2.169713e-15 35.4341 67.3739 -4.125462e-15 -46408.168 29584.1055)" gradientUnits="userSpaceOnUse">
			<stop  offset="0.65" style="stop-color:#FFFFFF;stop-opacity:0"/>
			<stop  offset="0.67" style="stop-color:#FFFFFF;stop-opacity:0.17"/>
			<stop  offset="0.68" style="stop-color:#FFFFFF;stop-opacity:0.31"/>
			<stop  offset="0.7" style="stop-color:#FFFFFF;stop-opacity:0.42"/>
			<stop  offset="0.72" style="stop-color:#FFFFFF;stop-opacity:0.48"/>
			<stop  offset="0.73" style="stop-color:#FFFFFF;stop-opacity:0.5"/>
			<stop  offset="0.75" style="stop-color:#FFFFFF;stop-opacity:0.42"/>
			<stop  offset="0.78" style="stop-color:#FFFFFF;stop-opacity:0.23"/>
			<stop  offset="0.82" style="stop-color:#FFFFFF;stop-opacity:0"/>
		</radialGradient>
		<path style="fill:url(#SVGID_00000114782014123558607460000010037113987970998684_);" d="M112.2,107.5c1.9,0.1,3.7,0.1,5.6,0
			c15.8-0.6,29.7-6.6,39-15.6c0.6-0.6,1.6-1.6,2-2.1c-0.4-3.1-1.1-6.1-2.2-8.9H73.6c-1.1,2.9-1.8,5.9-2.2,8.9
			c0.8,0.9,1.5,1.5,2.2,2.2C82.8,100.9,96.6,106.8,112.2,107.5z"/>
		
			<linearGradient id="SVGID_00000019647997797177380970000015121409888089426097_" gradientUnits="userSpaceOnUse" x1="115.3892" y1="157.22" x2="115.6352" y2="136.413" gradientTransform="matrix(1 0 0 -1 0 276)">
			<stop  offset="0.31" style="stop-color:#FFFFFF;stop-opacity:0"/>
			<stop  offset="1" style="stop-color:#21AF85"/>
		</linearGradient>
		<path style="fill:url(#SVGID_00000019647997797177380970000015121409888089426097_);" d="M159,94.1c0,22.6-19.7,40.9-43.9,40.9
			c-24.3,0-43.9-18.3-43.9-40.9"/>
	</g>
</g>
<path class="st35" d="M107,168v19.9H124v-7.2c0-0.8-0.6-1.4-1.4-1.4h-10v2.8h8.5v2.8h-11.4v-14.2h11.4v2.8h-8.5v2.8h10
	c0.8,0,1.4-0.6,1.4-1.4V168H107"/>
</svg>
